# AST/ASF file generated using VICON BodyLanguage
# -----------------------------------------------
:version 1.10
:name VICON
:units
  mass 1.0
  length 0.45
  angle deg
:documentation
   .ast/.asf automatically generated from VICON data using
   VICON BodyBuilder and BodyLanguage model FoxedUp or BRILLIANT.MOD
:root
   order TX TY TZ RX RY RZ
   axis XYZ
   position 0 0 0  
   orientation 0 0 0 
:bonedata
  begin
     id 1 
     name lhipjoint
     direction 0.693937 -0.600361 0.397515 
     length 2.37164 
     axis 0 0 0  XYZ
  end
  begin
     id 2 
     name lfemur
     direction 0.34202 -0.939693 0  
     length 6.18497  
     axis 0 0 20  XYZ
    dof rx ry rz
    limits (-160.0 20.0)
           (-70.0 70.0)
           (-60.0 70.0)
  end
  begin
     id 3 
     name ltibia
     direction 0.34202 -0.939693 0   
     length 6.91601   
     axis 0 0 20   XYZ
    dof rx
    limits (-10.0 170.0)
  end
  begin
     id 4 
     name lfoot
     direction 0.0978718 -0.2689 0.958182   
     length 1.81453   
     axis -90 7.62852e-016 20   XYZ
    dof rx rz
    limits (-45.0 90.0)
           (-70.0 20.0)
  end
  begin
     id 5 
     name ltoes
     direction 1.53569e-011 -4.21951e-011 1   
     length 0.912052   
     axis -90 7.62852e-016 20   XYZ
    dof rx
    limits (-90.0 20.0)
  end
  begin
     id 6 
     name rhipjoint
     direction -0.643996 -0.637876 0.422354   
     length 2.23216  
     axis 0 0 0  XYZ 
  end
  begin
     id 7 
     name rfemur
     direction -0.34202 -0.939693 0   
     length 6.15404   
     axis 0 0 -20   XYZ
    dof rx ry rz
    limits (-160.0 20.0)
           (-70.0 70.0)
           (-70.0 60.0)
  end
  begin
     id 8 
     name rtibia
     direction -0.34202 -0.939693 0   
     length 6.86744   
     axis 0 0 -20   XYZ
    dof rx
    limits (-10.0 170.0)
 end
 begin
     id 9 
     name rfoot
     direction -0.118701 -0.326127 0.937844   
     length 1.9243  
     axis -90 -7.62852e-016 -20   XYZ
    dof rx rz
    limits (-45.0 90.0)
           (-20.0 70.0)
  end
  begin
     id 10 
     name rtoes
     direction -1.5356e-011 -4.2181e-011 1   
     length 0.958865   
     axis -90 -7.62852e-016 -20   XYZ
    dof rx
    limits (-90.0 20.0)
  end
  begin
     id 11 
     name lowerback
     direction 0.0310826 0.968686 -0.246334   
     length 2.00021   
     axis 0 0 0   XYZ
    dof rx ry rz
    limits (-20.0 45.0)
           (-30.0 30.0)
           (-30.0 30.0)
  end
  begin
     id 12 
     name upperback
     direction -0.0152834 0.999474 -0.0286152   
     length 2.03728   
     axis 0 0 0   XYZ
    dof rx ry rz
    limits (-20.0 45.0)
           (-30.0 30.0)
           (-30.0 30.0)
  end
  begin
     id 13 
     name thorax
     direction -0.0323701 0.996236 0.0804149   
     length 2.16   
     axis 0 0 0   XYZ
    dof rx ry rz
    limits (-20.0 45.0)
           (-30.0 30.0)
           (-30.0 30.0)
  end
  begin
     id 14 
     name lowerneck
     direction 0.0307935 0.982251 0.185027   
     length 1.43558   
     axis 0 0 0   XYZ
    dof rx ry rz
    limits (-20.0 45.0)
           (-30.0 30.0)
           (-30.0 30.0)
  end
  begin
     id 15 
     name upperneck
     direction -0.0927153 0.994775 0.0427454   
     length 1.44603   
     axis 0 0 0   XYZ
    dof rx ry rz
    limits (-20.0 45.0)
           (-30.0 30.0)
           (-30.0 30.0)
  end
  begin
     id 16
     name head
     direction -0.0341265 0.999406 -0.00472033  
     length 1.45931  
     axis 0 0 0   XYZ
    dof rx ry rz
    limits (-20.0 45.0)
           (-30.0 30.0)
           (-30.0 30.0)
  end
  begin
     id 17 
     name lclavicle
     direction 0.820755 0.555306 -0.134151  
     length 2.66075  
     axis 0 0 0   XYZ
    dof ry rz
    limits (-20.0 10.0)
           (0.0 20.0)
  end
  begin
     id 18 
     name lhumerus
     direction 1 -4.48971e-011 5.24853e-027   
     length 5.0546   
     axis -180 -30 -90   XYZ
    dof rx ry rz
    limits (-60.0 90.0)
           (-90.0 90.0)
           (-90.0 90.0)
  end
  begin
     id 19
     name lradius
     direction 1 -4.48971e-011 2.76575e-028   
     length 3.39013   
     axis -180 -30 -90   XYZ
    dof rx
    limits (-10.0 170.0)
  end
  begin
     id 20
     name lwrist
     direction 1 -4.48939e-011 -2.27826e-027   
     length 1.69507   
     axis 2.17013e-015 90 90   XYZ
    dof ry
    limits (-180.0 0.0)
 end
  begin
     id 21 
     name lhand
     direction 1 -4.49009e-011 -4.55652e-027   
     length 0.572425   
     axis 2.90745e-015 90 90   XYZ
    dof rx rz
    limits (-90.0 90.0)
           (-45.0 45.0)
  end
  begin
     id 22 
     name lfingers
     direction 1 -4.48955e-011 -9.11303e-027   
     length 0.461504   
     axis 5.81489e-015 90 90   XYZ
    dof rx
    limits (0.0 90.0)
  end
  begin
     id 23
     name lthumb
     direction 0.707107 -6.34929e-011 0.707107   
     length 0.66263   
     axis -90 45 2.85299e-015   XYZ
    dof rx rz
    limits (-45.0 45.0)
           (-45.0 45.0)
  end
  begin
     id 24 
     name rclavicle
     direction -0.754477 0.632921 -0.173712   
     length 2.73081  
     axis 0 0 0   XYZ 
    dof ry rz
    limits (-10.0 20.0)
           (-20.0 0.0)
  end
  begin
     id 25 
     name rhumerus
     direction -1 -4.48969e-011 5.1496e-027  
     length 5.0701   
     axis -180 30 90   XYZ
    dof rx ry rz
    limits (-90.0 60.0)
           (-90.0 90.0)
           (-90.0 90.0)
  end
  begin
     id 26 
     name rradius
     direction -1 -4.48967e-011 -7.15624e-028   
     length 3.14957   
     axis -180 30 90   XYZ
    dof rx
    limits (-10.0 170.0)
  end
  begin
     id 27 
     name rwrist
     direction -1 -4.48938e-011 -2.27826e-027   
     length 1.57479   
     axis 2.17013e-015 -90 -90   XYZ
    dof ry
    limits (-180.0 0.0)
  end
  begin
     id 28
     name rhand
     direction -1 -4.49008e-011 -4.55652e-027   
     length 0.718191   
     axis 2.90745e-015 -90 -90   XYZ
    dof rx rz
    limits (-90.0 90.0)
           (-45.0 45.0)
  end
  begin
     id 29
     name rfingers
     direction -1 -4.48953e-011 -9.11303e-027   
     length 0.579024   
     axis 5.81489e-015 -90 -90   XYZ
    dof rx
    limits (0.0 90.0)
  end
  begin
     id 30
     name rthumb
     direction -0.707107 -6.34937e-011 0.707107   
     length 0.831366   
     axis -90 -45 -2.85299e-015   XYZ
    dof rx rz
    limits (-45.0 45.0)
           (-45.0 45.0)
  end
:hierarchy
  begin
    root lhipjoint rhipjoint lowerback
    lhipjoint lfemur
    lfemur ltibia
    ltibia lfoot
    lfoot ltoes
    rhipjoint rfemur
    rfemur rtibia
    rtibia rfoot
    rfoot rtoes
    lowerback upperback
    upperback thorax
    thorax lowerneck lclavicle rclavicle
    lowerneck upperneck
    upperneck head
    lclavicle lhumerus
    lhumerus lradius
    lradius lwrist
    lwrist lhand lthumb
    lhand lfingers
    rclavicle rhumerus
    rhumerus rradius
    rradius rwrist
    rwrist rhand rthumb
    rhand rfingers
  end

#!OML:ASF H:\Male1\Project 1\Capture day 1\Session 1\Male1.ASF
:FULLY-SPECIFIED
:DEGREES
121
root -20.5113 15.2434 -1.57421 -1.77281 -12.0007 -3.73941
lowerback 8.3398 3.2965 -0.782738
upperback 4.79867 4.28739 -2.21381
thorax 0.415944 2.15035 -2.17459
lowerneck -6.69585 7.99445 10.3335
upperneck 25.9138 9.76357 -0.933722
head 9.9209 5.39465 -0.99327
rclavicle -3.89618e-014 3.65764e-014
rhumerus -41.1962 -0.243525 -84.3979
rradius 35.8272
rwrist -19.6367
rhand -18.6796 1.55176
rfingers 7.12502
rthumb 7.61439 -28.2912
lclavicle -3.89618e-014 3.65764e-014
lhumerus -35.4168 -7.38955 82.2547
lradius 33.4233
lwrist 7.93623
lhand -22.7213 13.6579
lfingers 7.12502
lthumb 3.71219 43.6053
rfemur -3.90325 5.22433 14.6716
rtibia 29.6117
rfoot -32.8295 -31.6698
rtoes -1.15648
lfemur -11.9626 -14.8677 -16.0983
ltibia 30.9056
lfoot -17.3902 16.3815
ltoes -10.6298
122
root -20.3432 15.2284 -1.57295 -1.65774 -12.5101 -3.82078
lowerback 8.11191 3.32109 -0.934004
upperback 4.78125 4.31507 -2.12144
thorax 0.505169 2.15963 -1.98355
lowerneck -6.47969 8.12911 10.316
upperneck 25.8886 10.0367 -1.16474
head 9.89842 5.49619 -1.04704
rclavicle 1.55052e-014 2.38542e-014
rhumerus -41.0818 0.129079 -84.5659
rradius 35.7135
rwrist -19.336
rhand -18.6611 1.70509
rfingers 7.12502
rthumb 7.63231 -28.1372
lclavicle 1.55052e-014 2.38542e-014
lhumerus -35.4316 -6.93785 82.0228
lradius 33.5863
lwrist 6.60823
lhand -22.2534 13.0104
lfingers 7.12502
lthumb 4.16411 42.9495
rfemur -4.6197 0.621368 15.4825
rtibia 32.3216
rfoot -38.9958 -25.6943
rtoes 19.7096
lfemur -12.2635 -14.9785 -16.6817
ltibia 31.2156
lfoot -17.6551 16.7395
ltoes -8.7323
123
root -20.1793 15.2301 -1.5658 -1.59013 -12.9717 -3.81951
lowerback 7.90042 3.39525 -1.11585
upperback 4.74107 4.40613 -2.08385
thorax 0.5655 2.20063 -1.83834
lowerneck -6.43571 8.22451 10.4254
upperneck 26.0683 10.2099 -1.35558
head 9.98407 5.56829 -1.10726
rclavicle 4.67144e-014 -6.36111e-015
rhumerus -41.0334 0.226416 -84.6509
rradius 35.6123
rwrist -19.0403
rhand -18.8534 1.80892
rfingers 7.12502
rthumb 7.4467 -28.04
lclavicle 4.67144e-014 -6.36111e-015
lhumerus -35.6344 -7.32428 82.2934
lradius 34.0461
lwrist 7.76604
lhand -23.1655 14.0943
lfingers 7.12502
lthumb 3.28323 44.0488
rfemur -5.49179 -3.42654 16.1973
rtibia 35.2412
rfoot -27.3923 -31.5308
rtoes -15.0892
lfemur -12.4235 -15.0451 -17.3462
ltibia 31.3863
lfoot -17.8488 17.147
ltoes -7.45486
124
root -20.0209 15.2337 -1.55682 -1.55441 -13.4287 -3.68804
lowerback 7.70987 3.5511 -1.26213
upperback 4.67396 4.60683 -2.21884
thorax 0.6058 2.2996 -1.89981
lowerneck -6.52408 8.25798 10.7389
upperneck 26.335 10.238 -1.49435
head 10.1297 5.59764 -1.1914
rclavicle -2.34566e-014 2.54444e-014
rhumerus -41.0647 -0.163503 -84.7533
rradius 35.5566
rwrist -18.7565
rhand -18.897 1.80411
rfingers 7.12502
rthumb 7.40454 -28.0463
lclavicle -2.34566e-014 2.54444e-014
lhumerus -35.775 -7.53769 82.0507
lradius 34.2534
lwrist 7.68456
lhand -22.9611 13.3883
lfingers 7.12502
lthumb 3.48069 43.3396
rfemur -6.32041 -7.07176 16.8522
rtibia 38.2468
rfoot -30.5598 -28.5564
rtoes -5.53136
lfemur -12.5499 -15.0097 -18.1131
ltibia 31.5182
lfoot -17.9929 17.527
ltoes -6.66184
125
root -19.8659 15.2271 -1.55203 -1.48751 -13.9657 -3.59735
lowerback 7.51136 3.70906 -1.35314
upperback 4.60949 4.81467 -2.36356
thorax 0.658886 2.4034 -2.00077
lowerneck -6.54587 8.3068 10.8879
upperneck 26.3938 10.2892 -1.52365
head 10.1713 5.63206 -1.21591
rclavicle 9.34288e-015 7.95139e-015
rhumerus -41.0679 -0.48737 -84.8908
rradius 35.5708
rwrist -18.6248
rhand -18.7334 1.71514
rfingers 7.12502
rthumb 7.56245 -28.1297
lclavicle 9.34288e-015 7.95139e-015
lhumerus -35.9202 -7.58553 81.7252
lradius 34.4093
lwrist 7.48572
lhand -22.8148 12.4677
lfingers 7.12502
lthumb 3.62199 42.4167
rfemur -6.9851 -10.3105 17.667
rtibia 41.145
rfoot -27.3474 -27.5724
rtoes -12.281
lfemur -12.7364 -14.7601 -18.7857
ltibia 31.63
lfoot -18.0073 17.8514
ltoes -6.3999
126
root -19.7136 15.2134 -1.54956 -1.42946 -14.4815 -3.44588
lowerback 7.26966 3.78735 -1.61836
upperback 4.57733 4.90924 -2.44852
thorax 0.746775 2.44579 -1.93148
lowerneck -6.59944 8.45742 10.9132
upperneck 26.3883 10.5119 -1.6028
head 10.2014 5.72673 -1.21629
rclavicle 7.35503e-015 -3.65764e-014
rhumerus -40.9283 -0.415132 -85.0404
rradius 35.5124
rwrist -18.6287
rhand -18.2976 1.73162
rfingers 7.12502
rthumb 7.98314 -28.0976
lclavicle 7.35503e-015 -3.65764e-014
lhumerus -36.1112 -7.63592 81.5886
lradius 34.5558
lwrist 8.00184
lhand -22.8941 12.4692
lfingers 7.12502
lthumb 3.54538 42.4195
rfemur -7.48804 -13.1894 18.4486
rtibia 43.8183
rfoot -25.0727 -26.0219
rtoes -16.8332
lfemur -12.9617 -14.4779 -19.5057
ltibia 31.7552
lfoot -18.0091 18.1324
ltoes -6.24986
127
root -19.5589 15.1901 -1.54572 -1.35002 -14.9948 -3.3519
lowerback 7.00485 3.85329 -1.74913
upperback 4.5408 4.99761 -2.55011
thorax 0.855222 2.48817 -1.95107
lowerneck -6.58887 8.57014 11.1466
upperneck 26.3413 10.6892 -1.82293
head 10.2239 5.80586 -1.30703
rclavicle -4.03533e-014 1.59028e-015
rhumerus -40.7609 -0.401788 -85.1864
rradius 35.3739
rwrist -18.4422
rhand -17.9657 1.8927
rfingers 7.12502
rthumb 8.30344 -27.9241
lclavicle -4.03533e-014 1.59028e-015
lhumerus -36.2495 -7.25981 81.2802
lradius 34.6577
lwrist 8.01074
lhand -22.95 12.4447
lfingers 7.12502
lthumb 3.49138 42.3959
rfemur -7.76015 -15.6858 19.2718
rtibia 46.0886
rfoot -23.4003 -24.2356
rtoes -20.2509
lfemur -13.2018 -14.3248 -20.1758
ltibia 31.9066
lfoot -18.2483 18.3207
ltoes -5.26714
128
root -19.4045 15.1877 -1.54326 -1.19799 -15.5123 -3.4702
lowerback 6.81753 3.93588 -1.60464
upperback 4.4715 5.12035 -2.62327
thorax 0.908851 2.55363 -2.10189
lowerneck -6.61621 8.66944 11.2998
upperneck 26.2973 10.8381 -1.9697
head 10.2436 5.87179 -1.36149
rclavicle -4.1546e-014 2.38542e-014
rhumerus -40.6043 -0.657312 -85.271
rradius 35.2432
rwrist -18.0558
rhand -18.0348 2.00111
rfingers 7.12502
rthumb 8.23675 -27.8183
lclavicle -4.1546e-014 2.38542e-014
lhumerus -36.4612 -7.16951 81.0552
lradius 34.7548
lwrist 8.09344
lhand -23.136 12.7767
lfingers 7.12502
lthumb 3.31173 42.7307
rfemur -7.84577 -17.5486 20.4647
rtibia 48.005
rfoot -22.2817 -22.5147
rtoes -23.3144
lfemur -13.4324 -14.0678 -20.5869
ltibia 31.9516
lfoot -18.4692 18.373
ltoes -4.3384
129
root -19.2525 15.1924 -1.54464 -1.11012 -16.0082 -3.53262
lowerback 6.7148 4.00126 -1.58465
upperback 4.4307 5.21047 -2.63996
thorax 0.928972 2.59913 -2.12905
lowerneck -6.60416 8.78982 11.4351
upperneck 26.156 11.054 -2.24014
head 10.2309 5.95367 -1.45088
rclavicle -8.38871e-014 3.49861e-014
rhumerus -40.3883 -0.599914 -85.3339
rradius 35.1845
rwrist -18.0371
rhand -18.1733 1.95448
rfingers 7.12502
rthumb 8.10307 -27.8702
lclavicle -8.38871e-014 3.49861e-014
lhumerus -36.5303 -6.98505 80.9433
lradius 34.5778
lwrist 8.25914
lhand -22.85 13.5003
lfingers 7.12502
lthumb 3.58796 43.4499
rfemur -7.68073 -18.8041 21.7624
rtibia 49.5129
rfoot -21.2031 -21.2154
rtoes -26.8803
lfemur -13.5858 -13.735 -21.0277
ltibia 31.8732
lfoot -18.6419 18.3049
ltoes -3.37373
130
root -19.1037 15.1947 -1.54603 -1.13214 -16.6417 -3.43251
lowerback 6.62915 4.11541 -1.73559
upperback 4.41876 5.35596 -2.70242
thorax 0.960386 2.66896 -2.112
lowerneck -6.55625 8.92029 11.587
upperneck 26.0037 11.2749 -2.4734
head 10.2081 6.04365 -1.5307
rclavicle 4.29375e-014 -2.70347e-014
rhumerus -40.0675 -0.213389 -85.4412
rradius 35.1271
rwrist -18.3925
rhand -18.1906 1.81279
rfingers 7.12502
rthumb 8.08634 -28.0125
lclavicle 4.29375e-014 -2.70347e-014
lhumerus -36.7325 -6.61418 80.7681
lradius 34.4769
lwrist 8.22723
lhand -20.9865 14.1905
lfingers 7.12502
lthumb 5.38737 44.102
rfemur -7.28501 -20.0934 22.745
rtibia 50.7254
rfoot -20.5152 -19.7375
rtoes -30.2986
lfemur -13.548 -13.2878 -21.6381
ltibia 31.6183
lfoot -18.7693 18.1807
ltoes -2.45541
131
root -18.959 15.1954 -1.54886 -1.11718 -17.4061 -3.44128
lowerback 6.54758 4.25144 -1.81344
upperback 4.37256 5.53336 -2.74386
thorax 0.959099 2.7561 -2.11704
lowerneck -6.44804 9.06408 11.7329
upperneck 25.8872 11.5228 -2.70349
head 10.1896 6.14715 -1.60703
rclavicle -5.86415e-014 3.49861e-014
rhumerus -39.6921 0.0836033 -85.5603
rradius 34.999
rwrist -18.6426
rhand -18.2806 1.70053
rfingers 7.12502
rthumb 7.99954 -28.1281
lclavicle -5.86415e-014 3.49861e-014
lhumerus -36.8737 -6.30153 80.6076
lradius 34.2002
lwrist 8.20591
lhand -22.5733 12.7718
lfingers 7.12502
lthumb 3.85514 42.7167
rfemur -6.74529 -21.1 23.8224
rtibia 51.5832
rfoot -20.7139 -17.5488
rtoes -29.4078
lfemur -13.5132 -12.5467 -22.1164
ltibia 31.3271
lfoot -18.6407 18.0626
ltoes -2.58734
132
root -18.8127 15.1888 -1.55185 -1.19328 -18.1382 -3.49383
lowerback 6.54447 4.3494 -1.83836
upperback 4.36716 5.66105 -2.7355
thorax 0.955213 2.81885 -2.10184
lowerneck -6.28979 9.20198 11.7224
upperneck 25.7037 11.7748 -2.87241
head 10.1225 6.24504 -1.64133
rclavicle 6.38099e-014 -4.77083e-015
rhumerus -39.4046 0.112162 -85.5865
rradius 34.9702
rwrist -18.5167
rhand -18.3439 1.71706
rfingers 7.12502
rthumb 7.93841 -28.1139
lclavicle 6.38099e-014 -4.77083e-015
lhumerus -37.1466 -5.94302 80.5503
lradius 34.0003
lwrist 8.1219
lhand -23.1039 12.3012
lfingers 7.12502
lthumb 3.34273 42.2547
rfemur -5.93609 -22.0263 24.8259
rtibia 52.0973
rfoot -19.5893 -15.396
rtoes -33.019
lfemur -13.4408 -11.7839 -22.5827
ltibia 31.1127
lfoot -18.4167 18.0271
ltoes -2.95619
133
root -18.6664 15.1848 -1.55234 -0.944195 -18.6766 -3.64237
lowerback 6.20015 4.36388 -1.69076
upperback 4.30936 5.70034 -2.75719
thorax 1.10277 2.84189 -2.18085
lowerneck -6.24755 9.34828 11.5377
upperneck 25.6153 11.9673 -2.70261
head 10.0735 6.33276 -1.5326
rclavicle -4.01545e-014 4.77083e-015
rhumerus -39.1358 0.0369396 -85.6299
rradius 34.996
rwrist -18.1338
rhand -18.324 1.78306
rfingers 7.12502
rthumb 7.95761 -28.0471
lclavicle -4.01545e-014 4.77083e-015
lhumerus -37.4179 -5.71696 80.5127
lradius 33.7865
lwrist 7.99077
lhand -22.5379 12.8071
lfingers 7.12502
lthumb 3.88933 42.7514
rfemur -5.32432 -22.9521 25.9712
rtibia 52.2356
rfoot -18.8392 -12.5698
rtoes -36.006
lfemur -13.7891 -11.1222 -22.8967
ltibia 30.984
lfoot -17.9766 17.9851
ltoes -3.91302
134
root -18.5193 15.1778 -1.55191 -0.710397 -19.1826 -3.8753
lowerback 5.9264 4.38056 -1.42231
upperback 4.21089 5.74348 -2.77235
thorax 1.18088 2.8698 -2.32725
lowerneck -6.18015 9.5014 11.6807
upperneck 25.6719 12.1883 -2.77425
head 10.1158 6.44045 -1.55177
rclavicle 1.5704e-014 3.18055e-015
rhumerus -38.8802 0.0550387 -85.7682
rradius 34.9811
rwrist -17.9083
rhand -18.3928 1.76709
rfingers 7.12502
rthumb 7.89126 -28.0656
lclavicle 1.5704e-014 3.18055e-015
lhumerus -37.6687 -5.62196 80.538
lradius 33.3833
lwrist 7.77173
lhand -21.5385 14.3181
lfingers 7.12502
lthumb 4.85438 44.2425
rfemur -4.54835 -23.6217 27.1149
rtibia 52.0242
rfoot -17.4607 -9.13019
rtoes -39.6006
lfemur -14.1551 -10.6337 -23.1222
ltibia 30.975
lfoot -17.7822 17.7021
ltoes -3.13613
